<mxfile host="Electron" agent="Mozilla/5.0 (Windows NT 10.0; Win64; x64) AppleWebKit/537.36 (KHTML, like Gecko) draw.io/24.7.5 Chrome/126.0.6478.183 Electron/31.3.0 Safari/537.36" version="24.7.5">
  <diagram name="第 1 页" id="hRxLMndlIpu360IFiSi-">
    <mxGraphModel dx="941" dy="703" grid="1" gridSize="10" guides="1" tooltips="1" connect="1" arrows="1" fold="1" page="1" pageScale="1" pageWidth="827" pageHeight="1169" math="0" shadow="0">
      <root>
        <mxCell id="0" />
        <mxCell id="1" parent="0" />
        <mxCell id="lDm2rbJjE9QmFnvDv3AJ-1" value="GPU B Tree" style="rounded=0;whiteSpace=wrap;html=1;" vertex="1" parent="1">
          <mxGeometry x="280" y="420" width="120" height="30" as="geometry" />
        </mxCell>
        <mxCell id="lDm2rbJjE9QmFnvDv3AJ-2" value="GPM" style="rounded=0;whiteSpace=wrap;html=1;" vertex="1" parent="1">
          <mxGeometry x="440" y="250" width="120" height="60" as="geometry" />
        </mxCell>
        <mxCell id="lDm2rbJjE9QmFnvDv3AJ-3" value="Data Structure" style="rounded=0;whiteSpace=wrap;html=1;" vertex="1" parent="1">
          <mxGeometry x="440" y="410" width="120" height="60" as="geometry" />
        </mxCell>
        <mxCell id="lDm2rbJjE9QmFnvDv3AJ-4" value="Storage Method" style="rounded=0;whiteSpace=wrap;html=1;" vertex="1" parent="1">
          <mxGeometry x="440" y="330" width="120" height="60" as="geometry" />
        </mxCell>
        <mxCell id="lDm2rbJjE9QmFnvDv3AJ-5" value="CSR" style="rounded=0;whiteSpace=wrap;html=1;" vertex="1" parent="1">
          <mxGeometry x="280" y="350" width="120" height="30" as="geometry" />
        </mxCell>
        <mxCell id="lDm2rbJjE9QmFnvDv3AJ-6" value="GPMA" style="rounded=0;whiteSpace=wrap;html=1;" vertex="1" parent="1">
          <mxGeometry x="10" y="420" width="120" height="30" as="geometry" />
        </mxCell>
        <mxCell id="lDm2rbJjE9QmFnvDv3AJ-7" value="KV" style="rounded=0;whiteSpace=wrap;html=1;" vertex="1" parent="1">
          <mxGeometry x="150" y="420" width="120" height="30" as="geometry" />
        </mxCell>
        <mxCell id="lDm2rbJjE9QmFnvDv3AJ-8" value="Symmetry Breaking" style="rounded=0;whiteSpace=wrap;html=1;" vertex="1" parent="1">
          <mxGeometry x="280" y="265" width="120" height="30" as="geometry" />
        </mxCell>
        <mxCell id="lDm2rbJjE9QmFnvDv3AJ-9" value="DFS" style="rounded=0;whiteSpace=wrap;html=1;" vertex="1" parent="1">
          <mxGeometry x="150" y="265" width="120" height="30" as="geometry" />
        </mxCell>
      </root>
    </mxGraphModel>
  </diagram>
</mxfile>
